<?xml version="1.0" encoding="utf-8"?>
<!-- Generator: Adobe Illustrator 23.0.1, SVG Export Plug-In . SVG Version: 6.00 Build 0)  -->
<svg version="1.1" xmlns="http://www.w3.org/2000/svg" xmlns:xlink="http://www.w3.org/1999/xlink" x="0px" y="0px"
	 viewBox="0 0 62.23 100" style="enable-background:new 0 0 62.23 100;" xml:space="preserve">
<style type="text/css">
	.st0{fill:#6C9FD9;}
	.st1{fill:#02182D;}
	.st2{fill:#062F5C;}
	.st3{fill:#0A3F7E;}
	.st4{fill:#0D4F9E;}
	.st5{fill:#1060C1;}
	.st6{fill:#4282CE;}
	.st7{fill:#95BAE4;}
	.st8{fill:#CCE0F2;}
	.st9{fill:#145239;}
	.st10{fill:#197741;}
	.st11{fill:#259D58;}
	.st12{fill:#38C172;}
	.st13{fill:#74D99F;}
	.st14{fill:#A8EEC1;}
	.st15{fill:#E3FCEC;}
	.st16{fill:#5C4813;}
	.st17{fill:#8C6D1F;}
	.st18{fill:#CAA53D;}
	.st19{fill:#F4CA64;}
	.st20{fill:#FAE29F;}
	.st21{fill:#FDF3D7;}
	.st22{fill:#FFFCF4;}
	.st23{fill:#611818;}
	.st24{fill:#891B1B;}
	.st25{fill:#B82020;}
	.st26{fill:#DC3030;}
	.st27{fill:#E46464;}
	.st28{fill:#EFA6A6;}
	.st29{fill:#FCE8E8;}
	.st30{fill:#A6AFB8;}
	.st31{fill:#0D0E0F;}
	.st32{fill:#202224;}
	.st33{fill:#3B3E42;}
	.st34{fill:#575C61;}
	.st35{fill:#70777D;}
	.st36{fill:#868E95;}
	.st37{fill:#BDC8D2;}
	.st38{fill:#D3DFEA;}
	.st39{fill:none;stroke:#D3DFEA;stroke-miterlimit:10;}
	.st40{fill:none;stroke:#D3DFEA;stroke-miterlimit:10;stroke-dasharray:6.16,6.16;}
	.st41{fill:none;stroke:#D3DFEA;stroke-miterlimit:10;stroke-dasharray:6,6;}
	.st42{fill:none;stroke:#0D4F9E;stroke-miterlimit:10;}
</style>
<g id="Color_Palette">
</g>
<g id="BS4_Grids">
</g>
<g id="Main">
	<g>
		<g>
			<g>
				<g>
					<path class="st26" d="M26.07,73.05H0V0h26.17c10.65,0,19.32,3.26,26.02,9.79c6.7,6.53,10.05,15.46,10.05,26.79
						c0,11.27-3.37,20.16-10.1,26.69C45.4,69.79,36.71,73.05,26.07,73.05z M14.22,59.86h11.33c6.39,0,11.64-1.99,15.76-5.98
						c4.12-3.98,6.18-9.75,6.18-17.31c0-7.56-2.06-13.34-6.18-17.36c-4.12-4.02-9.34-6.03-15.66-6.03H14.22V59.86z"/>
				</g>
			</g>
		</g>
		<g>
			<path class="st4" d="M60.6,90.25c-3.11,0-4.74-1.56-6.04-2.81c-1.15-1.1-1.98-1.9-3.78-1.9c-1.8,0-2.63,0.8-3.78,1.9
				c-1.31,1.25-2.93,2.81-6.05,2.81c-3.12,0-4.74-1.56-6.05-2.81c-1.15-1.1-1.98-1.9-3.78-1.9c-1.8,0-2.63,0.8-3.78,1.9
				c-1.31,1.25-2.93,2.81-6.05,2.81c-3.12,0-4.74-1.56-6.05-2.81c-1.15-1.1-1.98-1.9-3.78-1.9c-1.8,0-2.63,0.8-3.78,1.9
				c-1.31,1.25-2.93,2.81-6.05,2.81c-0.9,0-1.64-0.73-1.64-1.64c0-0.9,0.73-1.64,1.64-1.64c1.8,0,2.63-0.8,3.78-1.9
				c1.31-1.25,2.93-2.81,6.05-2.81s4.74,1.56,6.05,2.81c1.15,1.1,1.98,1.9,3.78,1.9c1.8,0,2.63-0.8,3.78-1.9
				c1.31-1.25,2.93-2.81,6.05-2.81c3.12,0,4.74,1.56,6.05,2.81c1.15,1.1,1.98,1.9,3.78,1.9c1.8,0,2.63-0.8,3.78-1.9
				c1.31-1.25,2.93-2.81,6.05-2.81c3.11,0,4.74,1.56,6.04,2.81c1.15,1.1,1.98,1.9,3.78,1.9c0.9,0,1.64,0.73,1.64,1.64
				C62.23,89.52,61.5,90.25,60.6,90.25z"/>
		</g>
		<g>
			<path class="st4" d="M60.6,100c-3.11,0-4.74-1.56-6.04-2.81c-1.15-1.1-1.98-1.9-3.78-1.9c-1.8,0-2.63,0.8-3.78,1.9
				c-1.31,1.25-2.93,2.81-6.05,2.81c-3.12,0-4.74-1.56-6.05-2.81c-1.15-1.1-1.98-1.9-3.78-1.9c-1.8,0-2.63,0.8-3.78,1.9
				c-1.31,1.25-2.93,2.81-6.05,2.81c-3.12,0-4.74-1.56-6.05-2.81c-1.15-1.1-1.98-1.9-3.78-1.9s-2.63,0.8-3.78,1.9
				C6.38,98.44,4.75,100,1.64,100C0.73,100,0,99.27,0,98.36s0.73-1.64,1.64-1.64c1.8,0,2.63-0.8,3.78-1.9
				c1.31-1.25,2.93-2.81,6.05-2.81c3.12,0,4.74,1.56,6.05,2.81c1.15,1.1,1.98,1.9,3.78,1.9c1.8,0,2.63-0.8,3.78-1.9
				c1.31-1.25,2.93-2.81,6.05-2.81c3.12,0,4.74,1.56,6.05,2.81c1.15,1.1,1.98,1.9,3.78,1.9c1.8,0,2.63-0.8,3.78-1.9
				c1.31-1.25,2.93-2.81,6.05-2.81s4.74,1.56,6.04,2.81c1.15,1.1,1.98,1.9,3.78,1.9c0.9,0,1.64,0.73,1.64,1.64S61.5,100,60.6,100z"
				/>
		</g>
	</g>
</g>
</svg>
