<?xml version="1.0" encoding="iso-8859-1"?>
<!-- Generator: Adobe Illustrator 19.0.0, SVG Export Plug-In . SVG Version: 6.00 Build 0)  -->
<svg version="1.1" id="Layer_1" xmlns="http://www.w3.org/2000/svg" xmlns:xlink="http://www.w3.org/1999/xlink" x="0px" y="0px"
	 viewBox="0 0 511.657 511.657" style="enable-background:new 0 0 511.657 511.657;" xml:space="preserve">
<g>
	<g>
		<path style="fill:#3B445B;" d="M255.825,511.657c-4.799,0-8.678-3.888-8.678-8.678V381.488c0-4.799,3.879-8.678,8.678-8.678
			c4.799,0,8.678,3.879,8.678,8.678v121.492C264.503,507.769,260.624,511.657,255.825,511.657"/>
		<path style="fill:#3B445B;" d="M359.943,442.335H151.707c-23.934,0-43.407-19.473-43.407-43.398v-17.451
			c0-4.79,3.879-8.678,8.678-8.678c4.799,0,8.678,3.888,8.678,8.678v17.451c0,14.353,11.689,26.043,26.051,26.043h208.236
			c14.362,0,26.051-11.689,26.051-26.043v-17.451c0-4.79,3.879-8.678,8.678-8.678c4.799,0,8.678,3.888,8.678,8.678v17.451
			C403.351,422.862,383.877,442.335,359.943,442.335"/>
	</g>
	<path style="fill:#E6E7E8;" d="M116.978,199.352c-4.799,0-8.678-3.888-8.678-8.678V164.64c0-4.79,3.879-8.678,8.678-8.678
		c4.799,0,8.678,3.888,8.678,8.678v26.034C125.656,195.464,121.777,199.352,116.978,199.352"/>
	<path style="fill:#FAC176;" d="M99.622,190.674c-9.589,0-17.356,7.767-17.356,17.356v68.495c0,8.643,5.91,16.662,14.44,18.05
		c10.873,1.77,20.272-6.578,20.272-17.122V251.42c0,10.544,9.398,18.892,20.272,17.122c8.53-1.388,14.44-9.407,14.44-18.05V208.03
		c0-9.589-7.767-17.356-17.356-17.356H99.622z"/>
	<path style="fill:#FDD7AD;" d="M151.69,251.42c0,9.58-7.767,17.356-17.356,17.356c-9.589,0-17.356-7.775-17.356-17.356v26.034
		c0,9.58-7.767,17.356-17.356,17.356s-17.356-7.775-17.356-17.356v69.424h69.424V251.42z"/>
	<path style="fill:#E6E7E8;" d="M255.825,156.203c-4.799,0-8.678-3.888-8.678-8.678v-26.034c0-4.79,3.879-8.678,8.678-8.678
		c4.799,0,8.678,3.888,8.678,8.678v26.034C264.503,152.316,260.624,156.203,255.825,156.203"/>
	<path style="fill:#FAC176;" d="M238.469,147.525c-9.589,0-17.356,7.775-17.356,17.356v59.817c0,8.643,5.91,16.662,14.44,18.05
		c10.873,1.77,20.272-6.578,20.272-17.122v33.783c0,8.643,5.91,16.662,14.44,18.05c10.874,1.77,20.272-6.578,20.272-17.122v-95.458
		c0-9.58-7.767-17.356-17.356-17.356H238.469z"/>
	<path style="fill:#FDD7AD;" d="M290.537,347.119v-86.78c0,9.589-7.767,17.356-17.356,17.356c-9.589,0-17.356-7.767-17.356-17.356
		v-34.712c0,9.589-7.767,17.356-17.356,17.356c-9.589,0-17.356-7.767-17.356-17.356v121.492H290.537z"/>
	<path style="fill:#E6E7E8;" d="M394.673,199.352c-4.799,0-8.678-3.888-8.678-8.678V164.64c0-4.79,3.879-8.678,8.678-8.678
		c4.799,0,8.678,3.888,8.678,8.678v26.034C403.351,195.464,399.472,199.352,394.673,199.352"/>
	<path style="fill:#FAC176;" d="M359.961,208.03v77.173c0,8.643,5.91,16.662,14.44,18.05c10.873,1.77,20.272-6.578,20.272-17.122
		v-43.39c0,10.544,9.398,18.892,20.272,17.122c8.53-1.388,14.44-9.407,14.44-18.05V208.03c0-9.589-7.767-17.356-17.356-17.356
		h-34.712C367.728,190.674,359.961,198.441,359.961,208.03"/>
	<path style="fill:#FDD7AD;" d="M429.384,346.877V242.742c0,9.58-7.767,17.356-17.356,17.356s-17.356-7.775-17.356-17.356v43.39
		c0,9.58-7.767,17.356-17.356,17.356c-9.589,0-17.356-7.775-17.356-17.356v60.746H429.384z"/>
	<g>
		<path style="fill:#556080;" d="M290.497,381.589h-69.346c-9.607,0-17.391-7.784-17.391-17.399v-17.313h104.136v17.313
			C307.896,373.805,300.104,381.589,290.497,381.589"/>
		<path style="fill:#556080;" d="M429.345,381.589h-69.346c-9.607,0-17.391-7.784-17.391-17.399v-17.313h104.136v17.313
			C446.744,373.805,438.951,381.589,429.345,381.589"/>
		<path style="fill:#556080;" d="M151.65,381.589H82.304c-9.607,0-17.391-7.784-17.391-17.399v-17.313h104.136v17.313
			C169.049,373.805,161.256,381.589,151.65,381.589"/>
	</g>
	<path style="fill:#F0C419;" d="M116.978,43.149l-34.712,60.746c-13.807,24.862,1.987,57.648,30.277,60.52
		c1.458,0.148,2.933,0.226,4.434,0.226c1.501,0,2.977-0.078,4.434-0.226c28.29-2.872,44.084-35.658,30.277-60.52L116.978,43.149z"/>
	<path style="fill:#E57E25;" d="M116.978,112.572l-15.143,26.034c-6.023,10.657,0.868,24.706,13.208,25.938
		c0.633,0.061,1.284,0.095,1.935,0.095c0.651,0,1.302-0.035,1.935-0.095c12.34-1.232,19.23-15.282,13.208-25.938L116.978,112.572z"
		/>
	<path style="fill:#F0C419;" d="M255.825,0l-34.712,60.746c-13.807,24.862,1.987,57.648,30.277,60.52
		c1.458,0.148,2.933,0.226,4.434,0.226s2.977-0.078,4.434-0.226c28.29-2.872,44.084-35.658,30.277-60.52L255.825,0z"/>
	<path style="fill:#E57E25;" d="M255.825,69.424l-15.143,26.034c-6.022,10.657,0.868,24.706,13.208,25.938
		c0.633,0.061,1.284,0.095,1.935,0.095s1.302-0.035,1.935-0.095c12.34-1.232,19.23-15.282,13.208-25.938L255.825,69.424z"/>
	<path style="fill:#F0C419;" d="M394.673,43.149l-34.712,60.746c-13.807,24.862,1.987,57.648,30.277,60.52
		c1.458,0.148,2.933,0.226,4.434,0.226c1.501,0,2.977-0.078,4.434-0.226c28.29-2.872,44.084-35.658,30.277-60.52L394.673,43.149z"/>
	<path style="fill:#E57E25;" d="M394.673,112.572l-15.143,26.034c-6.022,10.657,0.868,24.706,13.208,25.938
		c0.633,0.061,1.284,0.095,1.935,0.095c0.651,0,1.302-0.035,1.935-0.095c12.34-1.232,19.23-15.282,13.208-25.938L394.673,112.572z"
		/>
</g>
<g>
</g>
<g>
</g>
<g>
</g>
<g>
</g>
<g>
</g>
<g>
</g>
<g>
</g>
<g>
</g>
<g>
</g>
<g>
</g>
<g>
</g>
<g>
</g>
<g>
</g>
<g>
</g>
<g>
</g>
</svg>
